<svg width="281" height="841" viewBox="0 0 281 841" fill="none" xmlns="http://www.w3.org/2000/svg">
<path fill-rule="evenodd" clip-rule="evenodd" d="M140 70C140 50.67 146.834 34.1709 160.503 20.5025C174.171 6.83417 190.67 0 210 0C229.33 0 245.829 6.83417 259.497 20.5025C273.166 34.1709 280 50.67 280 70C280 89.33 273.166 105.829 259.497 119.497C245.829 133.166 229.33 140 210 140C190.67 140 174.171 133.166 160.503 119.497C146.834 105.829 140 89.33 140 70Z" fill="#7D9CAB"/>
<path fill-rule="evenodd" clip-rule="evenodd" d="M140 491C140 471.67 146.834 455.171 160.503 441.503C174.171 427.834 190.67 421 210 421C229.33 421 245.829 427.834 259.497 441.503C273.166 455.171 280 471.67 280 491C280 510.33 273.166 526.829 259.497 540.497C245.829 554.166 229.33 561 210 561C190.67 561 174.171 554.166 160.503 540.497C146.834 526.829 140 510.33 140 491Z" fill="#7D9CAB"/>
<path fill-rule="evenodd" clip-rule="evenodd" d="M0 0H70C108.66 0 140 31.3401 140 70V140H0V0Z" fill="#F8BA90"/>
<path fill-rule="evenodd" clip-rule="evenodd" d="M0 421H70C108.66 421 140 452.34 140 491V561H0V421Z" fill="#F8BA90"/>
<path fill-rule="evenodd" clip-rule="evenodd" d="M71 280C109.66 280 141 311.34 141 350V420H1V350C0.999992 311.34 32.3401 280 71 280Z" fill="#CEEAF7"/>
<path fill-rule="evenodd" clip-rule="evenodd" d="M71 701C109.66 701 141 732.34 141 771V841H1V771C0.999992 732.34 32.3401 701 71 701Z" fill="#CEEAF7"/>
<path fill-rule="evenodd" clip-rule="evenodd" d="M211 280H281V350C281 388.66 249.66 420 211 420H141V350C141 311.34 172.34 280 211 280Z" fill="#F8BA90"/>
<path fill-rule="evenodd" clip-rule="evenodd" d="M211 701H281V771C281 809.66 249.66 841 211 841H141V771C141 732.34 172.34 701 211 701Z" fill="#F8BA90"/>
<path fill-rule="evenodd" clip-rule="evenodd" d="M0 140H140V210C140 248.66 108.66 280 70 280H0V140Z" fill="#7D9CAB"/>
<path fill-rule="evenodd" clip-rule="evenodd" d="M0 561H140V631C140 669.66 108.66 701 70 701H0V561Z" fill="#7D9CAB"/>
<path fill-rule="evenodd" clip-rule="evenodd" d="M140 140H280V280H210C171.34 280 140 248.66 140 210V140Z" fill="#CEEAF7"/>
<path fill-rule="evenodd" clip-rule="evenodd" d="M140 561H280V701H210C171.34 701 140 669.66 140 631V561Z" fill="#CEEAF7"/>
</svg>
